<svg width="1035" height="342" viewBox="0 0 1035 342" fill="none" xmlns="http://www.w3.org/2000/svg">
<path d="M42.267 42.1829H99.08C112.023 42.0787 124.764 45.4019 136.007 51.8149C147.204 58.1454 156.501 67.3584 162.934 78.4969C169.607 89.8643 172.941 102.666 172.934 116.903C172.741 138.087 165.61 158.623 152.634 175.369C142.517 188.326 129.591 198.818 114.83 206.054C100.069 213.289 83.858 217.08 67.419 217.14H5.08501C2.14701 217.14 0.677669 215.953 0.677002 213.579C0.713548 213.042 0.795503 212.51 0.921997 211.987L35.89 47.4549C36.624 43.9369 38.7497 42.1796 42.267 42.1829ZM127.293 120.083C127.39 113.596 125.805 107.194 122.693 101.502C119.686 96.0323 115.175 91.5389 109.693 88.5539C103.678 85.3444 96.9379 83.7385 90.122 83.8909H73.673L54.287 175.427H70.735C79.3338 175.423 87.8008 173.314 95.397 169.284C103.184 165.25 110.007 159.58 115.397 152.662C120.737 145.968 124.472 138.139 126.314 129.776C126.935 126.583 127.263 123.34 127.293 120.087V120.083Z" fill="white"/>
<path d="M219.004 42.1829H336.181C338.967 42.1829 340.358 43.3665 340.355 45.7339C340.322 46.3144 340.24 46.891 340.11 47.4579L333.733 77.6399C332.988 81.0679 330.906 82.7929 327.468 82.7929H250.668L244.535 111.873H302.804C306.079 111.873 307.715 113.14 307.712 115.673C307.671 116.212 307.589 116.747 307.467 117.273L302.191 141.568C301.457 144.996 299.212 146.721 295.447 146.721H237.166L230.666 176.78H309.682C312.62 176.78 314.1 178.046 314.1 180.586C314.112 181.038 314.071 181.49 313.978 181.933L307.468 211.993C306.735 215.431 304.65 217.149 301.213 217.146H181.833C178.884 217.146 177.411 215.959 177.415 213.585C177.456 213.049 177.538 212.517 177.66 211.993L212.627 47.4609C213.362 43.9389 215.488 42.1795 219.004 42.1829Z" fill="white"/>
<path d="M369.914 43.591C371.013 42.6671 372.407 42.1676 373.843 42.183H409.055C411.83 42.183 413.228 43.366 413.228 45.734C413.19 46.3146 413.104 46.8911 412.973 47.458L385.862 175.431H451.134C454.001 175.431 455.434 176.574 455.434 178.859C455.401 179.439 455.319 180.016 455.189 180.583L448.445 211.99C447.712 215.428 445.664 217.146 442.302 217.143H336.661C333.794 217.143 332.361 215.997 332.361 213.704C332.395 213.127 332.477 212.553 332.606 211.99L367.574 47.458C367.903 45.9448 368.726 44.5843 369.914 43.591Z" fill="white"/>
<path d="M481.684 42.1829H609.534C612.319 42.1829 613.71 43.3665 613.707 45.7339C613.674 46.3143 613.592 46.891 613.462 47.4579L607.204 77.2729C606.47 80.7829 604.378 82.5479 600.95 82.5479H559.104L531.504 211.99C530.76 215.428 528.678 217.143 525.239 217.143H491.255C488.316 217.143 486.847 215.956 486.847 213.582C486.883 213.045 486.965 212.513 487.092 211.99L514.692 82.5479H473.104C470.237 82.5479 468.806 81.3609 468.809 78.9869C468.842 78.4096 468.924 77.8362 469.054 77.2729L475.304 47.4579C476.041 43.9399 478.174 42.1829 481.684 42.1829Z" fill="white"/>
<path d="M669.663 42.1829H698.498C701.845 42.1829 703.814 43.9379 704.386 47.4579L733.711 211.99C733.804 212.433 733.845 212.885 733.833 213.337C733.833 215.877 732.354 217.143 729.415 217.143H695.549C692.029 217.143 690.026 215.425 689.54 211.99L686.223 188.92H621.931L609.044 211.99C607.248 215.428 604.551 217.146 600.953 217.143H564.628C562.342 217.143 561.199 216.41 561.2 214.943C561.31 213.882 561.688 212.867 562.3 211.994L661.194 47.4579C663.235 43.9379 666.058 42.1795 669.663 42.1829ZM680.826 151.014L673.214 97.5139L643.277 151.014H680.826Z" fill="white"/>
<path d="M845.717 166.14C845.517 166.401 845.417 166.724 845.433 167.053C845.448 167.381 845.58 167.693 845.804 167.934C846.028 168.174 846.33 168.328 846.656 168.367C846.983 168.407 847.312 168.329 847.587 168.149L1012.71 59.8209C1013.64 59.2436 1014.44 58.4843 1015.06 57.5892C1015.68 56.694 1016.11 55.6818 1016.33 54.614C1016.55 53.5462 1016.55 52.4452 1016.33 51.3779C1016.11 50.3107 1015.67 49.2995 1015.05 48.4059C1005.85 35.4499 993.912 24.6771 980.084 16.8519C979.248 16.3739 978.41 15.9249 977.574 15.4769C976.036 14.643 974.269 14.3319 972.539 14.5906C970.809 14.8493 969.21 15.6637 967.983 16.9109C967.983 16.9109 868.704 135.994 845.717 166.14Z" fill="white"/>
<path d="M1010.34 172.44L781.375 230.14L781.196 230.191L667.474 258.855H895.843H895.889C913.876 256.666 931.372 251.49 947.655 243.54C970.176 232.752 989.857 216.839 1005.12 197.075C1009.24 191.796 1012.99 186.237 1016.34 180.439C1016.88 179.517 1017.13 178.456 1017.07 177.39C1017.01 176.324 1016.63 175.3 1015.99 174.446C1015.35 173.592 1014.47 172.946 1013.47 172.59C1012.46 172.233 1011.37 172.181 1010.34 172.44Z" fill="white"/>
<path d="M1032.74 89.5229C1032.56 88.5856 1032.17 87.7024 1031.59 86.9457C1031.01 86.189 1030.26 85.5802 1029.4 85.1693C1028.54 84.7583 1027.6 84.5568 1026.64 84.5812C1025.69 84.6057 1024.76 84.8554 1023.92 85.3099C1023.92 85.3099 856.677 179.755 817.404 202.991C817.117 203.165 816.903 203.437 816.8 203.757C816.698 204.077 816.715 204.423 816.849 204.731C816.982 205.04 817.222 205.289 817.525 205.435C817.827 205.58 818.172 205.61 818.496 205.521L1021.65 151.408C1024 150.794 1026.12 149.551 1027.81 147.812C1029.5 146.074 1030.67 143.907 1031.21 141.547C1031.99 137.961 1032.68 134.347 1033.21 130.67C1034.13 124.325 1034.62 117.926 1034.68 111.516C1034.69 104.141 1034.04 96.7805 1032.74 89.5229Z" fill="white"/>
<path d="M932.646 0.782944C930.113 0.612277 927.552 0.525616 924.963 0.522949H840.563C840.317 0.522949 839.481 0.528946 838.306 0.541946C850.139 17.365 858.458 36.4006 862.769 56.5113C867.079 76.6221 867.292 97.3953 863.393 117.59C863.339 117.905 863.395 118.228 863.551 118.507C863.708 118.785 863.955 119.001 864.252 119.119C864.549 119.236 864.878 119.247 865.182 119.151C865.487 119.055 865.749 118.857 865.924 118.59L936.973 11.0479C937.719 10.1676 938.207 9.0977 938.382 7.95694C938.557 6.81618 938.412 5.64927 937.964 4.58581C937.516 3.52234 936.781 2.60395 935.843 1.93263C934.904 1.26132 933.798 0.863352 932.646 0.782944Z" fill="white"/>
<path d="M381.724 341.041C389.023 341.03 396.066 338.349 401.524 333.502V313.846H381.16V318.846H396.17V331.107C392.106 334.286 387.098 336.022 381.938 336.039C369.961 336.039 362.422 327.303 362.422 315.539V315.396C362.422 304.405 370.243 295.175 381.163 295.175C386.714 294.993 392.111 297.021 396.17 300.812L399.763 296.585C394.831 292.428 389.688 290.033 381.374 290.033C366.574 290.033 356.644 302.01 356.644 315.533V315.674C356.642 329.769 366.224 341.041 381.724 341.041ZM429.915 340.196H463.24V335.053H435.481V290.877H429.915V340.196ZM509.459 341.041C524.466 341.041 534.682 329.134 534.682 315.541V315.396C534.682 301.796 524.607 290.032 509.6 290.032C494.593 290.032 484.377 301.939 484.377 315.532V315.673C484.377 329.275 494.452 341.041 509.459 341.041ZM509.6 335.898C498.327 335.898 490.154 326.739 490.154 315.536V315.396C490.154 304.196 498.186 295.175 509.454 295.175C520.722 295.175 528.9 304.334 528.9 315.537V315.678C528.905 326.88 520.87 335.896 509.6 335.896V335.898ZM562.3 340.198H584.212C594.992 340.198 602.112 335.198 602.112 326.741V326.596C602.112 319.832 597.392 316.45 591.544 314.689C595.419 312.998 599.365 309.689 599.365 303.275V303.134C599.389 301.674 599.122 300.223 598.577 298.868C598.033 297.513 597.223 296.281 596.195 295.243C593.377 292.495 588.938 290.875 583.302 290.875H562.302L562.3 340.198ZM567.8 312.861V295.881H582.807C589.853 295.881 593.728 299.051 593.728 303.913V304.054C593.728 309.831 589.078 312.861 582.385 312.861H567.8ZM567.8 335.195V317.796H583.37C591.97 317.796 596.47 320.896 596.47 326.251V326.392C596.47 331.892 591.82 335.199 584.352 335.199L567.8 335.195ZM624.8 340.195H630.507L636.355 327.161H663.198L668.97 340.196H674.959L652.483 290.525H647.27L624.8 340.195ZM638.539 322.158L649.812 297.006L661.012 322.158H638.539ZM700.533 340.196H733.859V335.053H706.099V290.877H700.533V340.196Z" fill="white"/>
</svg>
